<mxfile host="app.diagrams.net" agent="Mozilla/5.0 (Windows NT 10.0; Win64; x64) AppleWebKit/537.36 (KHTML, like Gecko) Chrome/131.0.0.0 Safari/537.36" version="25.0.3">
  <diagram name="Page-1" id="3hMaIcJDUubritgtG8hw">
    <mxGraphModel dx="1674" dy="1846" grid="1" gridSize="10" guides="1" tooltips="1" connect="1" arrows="1" fold="1" page="1" pageScale="1" pageWidth="850" pageHeight="1100" math="0" shadow="0">
      <root>
        <mxCell id="0" />
        <mxCell id="1" parent="0" />
        <mxCell id="tprk2bYproSzQRIdtKUN-11" value="" style="whiteSpace=wrap;html=1;fillColor=#FFFFFF;" parent="1" vertex="1">
          <mxGeometry x="90" y="-80" width="970" height="940" as="geometry" />
        </mxCell>
        <mxCell id="RSrKTViwA0Ttyav9MQsQ-18" style="edgeStyle=orthogonalEdgeStyle;rounded=0;orthogonalLoop=1;jettySize=auto;html=1;exitX=1;exitY=0.5;exitDx=0;exitDy=0;entryX=1;entryY=0.5;entryDx=0;entryDy=0;" edge="1" parent="1" source="A6aKOv3Wx5MAdU-xc5Nb-18" target="RSrKTViwA0Ttyav9MQsQ-6">
          <mxGeometry relative="1" as="geometry">
            <Array as="points">
              <mxPoint x="810" y="780" />
              <mxPoint x="340" y="780" />
            </Array>
          </mxGeometry>
        </mxCell>
        <mxCell id="A6aKOv3Wx5MAdU-xc5Nb-18" value="" style="rounded=1;whiteSpace=wrap;html=1;fillColor=#FFFFFF;rotation=90;" parent="1" vertex="1">
          <mxGeometry x="475" y="130" width="670" height="450" as="geometry" />
        </mxCell>
        <mxCell id="A6aKOv3Wx5MAdU-xc5Nb-17" value="&lt;b&gt;Fine-tuning step&lt;/b&gt;" style="text;html=1;align=center;verticalAlign=middle;whiteSpace=wrap;rounded=0;" parent="1" vertex="1">
          <mxGeometry x="250" y="160" width="180" height="30" as="geometry" />
        </mxCell>
        <mxCell id="RSrKTViwA0Ttyav9MQsQ-10" style="edgeStyle=orthogonalEdgeStyle;rounded=0;orthogonalLoop=1;jettySize=auto;html=1;exitX=0.5;exitY=1;exitDx=0;exitDy=0;" edge="1" parent="1" source="RSrKTViwA0Ttyav9MQsQ-1" target="RSrKTViwA0Ttyav9MQsQ-2">
          <mxGeometry relative="1" as="geometry" />
        </mxCell>
        <mxCell id="RSrKTViwA0Ttyav9MQsQ-1" value="Initial Dataset with AI and AO properties" style="rounded=1;whiteSpace=wrap;html=1;" vertex="1" parent="1">
          <mxGeometry x="750" y="40" width="120" height="60" as="geometry" />
        </mxCell>
        <mxCell id="RSrKTViwA0Ttyav9MQsQ-11" style="edgeStyle=orthogonalEdgeStyle;rounded=0;orthogonalLoop=1;jettySize=auto;html=1;exitX=0.5;exitY=1;exitDx=0;exitDy=0;" edge="1" parent="1" source="RSrKTViwA0Ttyav9MQsQ-2" target="RSrKTViwA0Ttyav9MQsQ-3">
          <mxGeometry relative="1" as="geometry" />
        </mxCell>
        <mxCell id="RSrKTViwA0Ttyav9MQsQ-2" value="Data Augmentation Layer" style="rounded=1;whiteSpace=wrap;html=1;" vertex="1" parent="1">
          <mxGeometry x="750" y="150" width="120" height="60" as="geometry" />
        </mxCell>
        <mxCell id="RSrKTViwA0Ttyav9MQsQ-12" style="edgeStyle=orthogonalEdgeStyle;rounded=0;orthogonalLoop=1;jettySize=auto;html=1;exitX=0.5;exitY=1;exitDx=0;exitDy=0;" edge="1" parent="1" source="RSrKTViwA0Ttyav9MQsQ-3" target="RSrKTViwA0Ttyav9MQsQ-9">
          <mxGeometry relative="1" as="geometry" />
        </mxCell>
        <mxCell id="RSrKTViwA0Ttyav9MQsQ-3" value="" style="rounded=1;whiteSpace=wrap;html=1;" vertex="1" parent="1">
          <mxGeometry x="660" y="260" width="300" height="170" as="geometry" />
        </mxCell>
        <mxCell id="RSrKTViwA0Ttyav9MQsQ-5" value="&lt;b class=&quot;custom-cursor-default-hover&quot;&gt;Pipeline Data&lt;/b&gt;" style="text;html=1;align=center;verticalAlign=middle;whiteSpace=wrap;rounded=0;" vertex="1" parent="1">
          <mxGeometry x="720" y="-40" width="180" height="30" as="geometry" />
        </mxCell>
        <mxCell id="RSrKTViwA0Ttyav9MQsQ-6" value="" style="rounded=1;whiteSpace=wrap;html=1;fillColor=#FFFFFF;rotation=90;" vertex="1" parent="1">
          <mxGeometry x="5" y="130" width="670" height="450" as="geometry" />
        </mxCell>
        <mxCell id="RSrKTViwA0Ttyav9MQsQ-8" value="&lt;b class=&quot;custom-cursor-default-hover&quot;&gt;Fine-Tuning&lt;/b&gt;" style="text;html=1;align=center;verticalAlign=middle;whiteSpace=wrap;rounded=0;" vertex="1" parent="1">
          <mxGeometry x="250" y="-30" width="180" height="30" as="geometry" />
        </mxCell>
        <mxCell id="RSrKTViwA0Ttyav9MQsQ-9" value="PCA" style="rounded=1;whiteSpace=wrap;html=1;" vertex="1" parent="1">
          <mxGeometry x="750" y="480" width="120" height="60" as="geometry" />
        </mxCell>
        <mxCell id="RSrKTViwA0Ttyav9MQsQ-16" style="edgeStyle=orthogonalEdgeStyle;rounded=0;orthogonalLoop=1;jettySize=auto;html=1;exitX=1;exitY=0.25;exitDx=0;exitDy=0;entryX=0;entryY=0.25;entryDx=0;entryDy=0;" edge="1" parent="1" source="RSrKTViwA0Ttyav9MQsQ-13" target="RSrKTViwA0Ttyav9MQsQ-14">
          <mxGeometry relative="1" as="geometry" />
        </mxCell>
        <mxCell id="RSrKTViwA0Ttyav9MQsQ-13" value="Generator" style="rounded=1;whiteSpace=wrap;html=1;" vertex="1" parent="1">
          <mxGeometry x="670" y="270" width="120" height="140" as="geometry" />
        </mxCell>
        <mxCell id="RSrKTViwA0Ttyav9MQsQ-17" style="edgeStyle=orthogonalEdgeStyle;rounded=0;orthogonalLoop=1;jettySize=auto;html=1;exitX=0;exitY=0.75;exitDx=0;exitDy=0;entryX=1;entryY=0.75;entryDx=0;entryDy=0;" edge="1" parent="1" source="RSrKTViwA0Ttyav9MQsQ-14" target="RSrKTViwA0Ttyav9MQsQ-13">
          <mxGeometry relative="1" as="geometry" />
        </mxCell>
        <mxCell id="RSrKTViwA0Ttyav9MQsQ-14" value="Discriminor" style="rounded=1;whiteSpace=wrap;html=1;" vertex="1" parent="1">
          <mxGeometry x="820" y="270" width="120" height="140" as="geometry" />
        </mxCell>
        <mxCell id="RSrKTViwA0Ttyav9MQsQ-15" style="edgeStyle=orthogonalEdgeStyle;rounded=0;orthogonalLoop=1;jettySize=auto;html=1;exitX=1;exitY=0.25;exitDx=0;exitDy=0;entryX=1;entryY=0.75;entryDx=0;entryDy=0;" edge="1" parent="1" source="RSrKTViwA0Ttyav9MQsQ-3" target="RSrKTViwA0Ttyav9MQsQ-3">
          <mxGeometry relative="1" as="geometry">
            <Array as="points">
              <mxPoint x="1010" y="303" />
              <mxPoint x="1010" y="388" />
            </Array>
          </mxGeometry>
        </mxCell>
      </root>
    </mxGraphModel>
  </diagram>
</mxfile>
